<svg xmlns="http://www.w3.org/2000/svg" width="46.931" height="46.931" viewBox="0 0 46.931 46.931">
  <g id="_003-piggy-bank-2" data-name="003-piggy-bank-2" transform="translate(0)">
    <path id="Path_3702" data-name="Path 3702" d="M426.591,233.975h1.375a1.375,1.375,0,0,0,0-2.75h-1.375a2.833,2.833,0,0,1-2.841-2.75,2.731,2.731,0,0,1,.806-1.944,1.375,1.375,0,0,0-1.944-1.944A5.462,5.462,0,0,0,421,228.475,5.584,5.584,0,0,0,426.591,233.975Z" transform="translate(-421 -203.635)" fill="#c5c7c7"/>
    <path id="Path_3703" data-name="Path 3703" d="M.06,137.444A15.453,15.453,0,0,1,15.322,123.75h8.057a15.245,15.245,0,0,1,3.85.495A9.64,9.64,0,0,1,34.378,121a1.369,1.369,0,0,1,1.347,1.595l-1.045,6.27a14.615,14.615,0,0,1,3.272,5.967,4.237,4.237,0,0,1,3.391,4.042v2.75c0,2.145-1.549,3.96-4.491,4.125A15.1,15.1,0,0,1,33,150.533v4.931a1.362,1.362,0,0,1-1.375,1.375h-5.5a1.362,1.362,0,0,1-1.375-1.375v-1.6a11.664,11.664,0,0,1-1.375.137H16.5v1.467a1.362,1.362,0,0,1-1.375,1.375H9.63a1.362,1.362,0,0,1-1.375-1.375v-3.117A15.164,15.164,0,0,1,.06,137.444Z" transform="translate(5.586 -109.909)" fill="#fff"/>
    <path id="Path_3704" data-name="Path 3704" d="M249.255,179.6v3.117a1.362,1.362,0,0,0,1.375,1.375h5.5a1.362,1.362,0,0,0,1.375-1.375v-1.467h2.75V151h-3.932a15.453,15.453,0,0,0-15.262,13.694A15.164,15.164,0,0,0,249.255,179.6Z" transform="translate(-235.414 -137.159)" fill="#dedfe0"/>
    <g id="Group_761" data-name="Group 761" transform="translate(19.341 22.09)">
      <circle id="Ellipse_111" data-name="Ellipse 111" cx="1.375" cy="1.375" r="1.375" transform="translate(16.499 2.75)" fill="#063e8b"/>
      <path id="Path_3705" data-name="Path 3705" d="M181,242.375a1.362,1.362,0,0,0,1.375,1.375h8.25a1.375,1.375,0,0,0,0-2.75h-8.25A1.361,1.361,0,0,0,181,242.375Z" transform="translate(-181 -241)" fill="#063e8b"/>
    </g>
    <path id="Path_3706" data-name="Path 3706" d="M241,242.375a1.362,1.362,0,0,0,1.375,1.375H246.5V241h-4.125A1.361,1.361,0,0,0,241,242.375Z" transform="translate(-221.659 -218.91)" fill="#032e68"/>
    <path id="Path_3707" data-name="Path 3707" d="M306.5,0A5.5,5.5,0,1,1,301,5.5,5.516,5.516,0,0,1,306.5,0Z" transform="translate(-292.659)" fill="#e41e29"/>
    <path id="Path_3708" data-name="Path 3708" d="M361,5.5a5.516,5.516,0,0,0,5.5,5.5V0A5.516,5.516,0,0,0,361,5.5Z" transform="translate(-352.659)" fill="#f25921"/>
    <path id="Path_3709" data-name="Path 3709" d="M186.5,91a5.5,5.5,0,1,1-5.5,5.5A5.516,5.516,0,0,1,186.5,91Z" transform="translate(-161.659 -82.659)" fill="#e41e29"/>
    <path id="Path_3710" data-name="Path 3710" d="M246.5,102V91a5.5,5.5,0,1,0,0,11Z" transform="translate(-221.659 -82.659)" fill="#f25921"/>
  </g>
</svg>
