<svg xmlns="http://www.w3.org/2000/svg" width="23.732" height="30" viewBox="0 0 23.732 30">
  <g id="calling" transform="translate(0 0.001)">
    <g id="Group_2646" data-name="Group 2646" transform="translate(10.901 3.61)">
      <path id="Path_5542" data-name="Path 5542" d="M61.5,71.343a9.41,9.41,0,0,0-1.042-5.326,6.149,6.149,0,0,0-.756-1.173,9.409,9.409,0,0,0-4.419-3.149,1.334,1.334,0,0,0-1.722.811,1.354,1.354,0,0,0,.787,1.65c.354.165.711.335,1.061.515A6.327,6.327,0,0,1,58.839,70c.019.392.027.788.03,1.179a1.354,1.354,0,0,0,1.178,1.4A1.334,1.334,0,0,0,61.5,71.343Z" transform="translate(-48.707 -61.614)" fill="#fff"/>
      <path id="Path_5543" data-name="Path 5543" d="M142.069,133.734a7.19,7.19,0,0,0-3.378-3.306,1.315,1.315,0,1,0-1.212,2.335,4.686,4.686,0,0,1,2.6,4.036,1.315,1.315,0,1,0,2.627-.139A8.594,8.594,0,0,0,142.069,133.734Z" transform="translate(-134.756 -126.256)" fill="#fff"/>
      <ellipse id="Ellipse_296" data-name="Ellipse 296" cx="1.4" cy="1.4" rx="1.4" ry="1.4" transform="translate(0 8.793)" fill="#fff"/>
    </g>
    <path id="Path_5544" data-name="Path 5544" d="M56.7,64.367c.354.165.711.335,1.06.515a6.325,6.325,0,0,1,3.434,5.329c.019.393.027.788.031,1.179a1.354,1.354,0,0,0,1.178,1.4,1.322,1.322,0,0,0,1.353-.828,1.275,1.275,0,0,1-.3,0,1.354,1.354,0,0,1-1.178-1.4c0-.39-.011-.786-.03-1.178a6.328,6.328,0,0,0-3.434-5.329c-.35-.179-.707-.35-1.061-.515a1.355,1.355,0,0,1-.787-1.65c.006-.018.013-.036.019-.054a1.313,1.313,0,0,0-1.073.878A1.354,1.354,0,0,0,56.7,64.367Z" transform="translate(-40.162 -58.216)" fill="#c5c7c7"/>
    <path id="Path_5545" data-name="Path 5545" d="M139.042,132.943a4.686,4.686,0,0,1,2.6,4.036,1.315,1.315,0,0,0,2.538.414,1.227,1.227,0,0,1-.164.011,1.316,1.316,0,0,1-1.32-1.249,4.685,4.685,0,0,0-2.6-4.036,1.316,1.316,0,0,1-.621-1.649,1.315,1.315,0,0,0-.432,2.473Z" transform="translate(-125.419 -122.826)" fill="#c5c7c7"/>
    <path id="Path_5546" data-name="Path 5546" d="M226.863,214.137a1.4,1.4,0,0,0,2.466-.2A1.4,1.4,0,0,1,227.812,212a1.4,1.4,0,0,0-.949,2.134Z" transform="translate(-215.742 -199.582)" fill="#c5c7c7"/>
    <path id="Path_5547" data-name="Path 5547" d="M54.088,4.436a7.535,7.535,0,0,1,2.3-3.039C57.486.54,59.062-.427,60.5.2a2.377,2.377,0,0,1,.969.8,3.164,3.164,0,0,1,.416.792c.023.062.96,3.029,1.307,4.475a1.95,1.95,0,0,1-.562,2.163,3.59,3.59,0,0,1-.711.459c-.665.337-1.357.621-2.05.9l-.29.117-.815.309.3.855A29.922,29.922,0,0,0,66.6,22.791l.6.589.714-.678a16.024,16.024,0,0,1,1.68-1.657,2.14,2.14,0,0,1,3.033-.073,34.611,34.611,0,0,1,3.7,3.138c1.256,1.262,1.168,2.47-.063,3.761a6.939,6.939,0,0,1-3.9,2.035,9.072,9.072,0,0,1-5.87-1.3,25.835,25.835,0,0,1-4.034-2.89l-1.7-1.64a28.672,28.672,0,0,1-6.478-11.647c-.749-2.495-1.217-5.527-.186-7.989Z" transform="translate(-53.492 -0.001)" fill="#fff"/>
    <path id="Path_5548" data-name="Path 5548" d="M293.865,10.295c-.967-2.8-1.828-5.738-2.56-8.672.06-.05.121-.1.182-.146.991-.766,2.323-1.6,3.63-1.345a2.6,2.6,0,0,1,1.934,1.928c.44,1.421.9,2.841,1.243,4.286a2.043,2.043,0,0,1-1.273,2.622c-.758.385-1.551.7-2.34,1.018Z" transform="translate(-288.595 -0.082)" fill="#c5c7c7"/>
    <path id="Path_5549" data-name="Path 5549" d="M53.493,350.746c.993,1.014,2.038,2,3.123,2.984a38.062,38.062,0,0,0,3.733,3.038,6.64,6.64,0,0,0,2.2-1.532c1.232-1.29,1.319-2.5.064-3.761a34.594,34.594,0,0,0-3.7-3.137,2.14,2.14,0,0,0-3.033.073,16.113,16.113,0,0,0-1.68,1.657Z" transform="translate(-39.787 -327.368)" fill="#c5c7c7"/>
    <path id="Path_5550" data-name="Path 5550" d="M54.917,58.345c2.069,6.89,5.9,12.5,12.214,16.177a9.069,9.069,0,0,0,5.87,1.3,6.937,6.937,0,0,0,3.9-2.035,3.289,3.289,0,0,0,.927-1.573l-.086.092a6.937,6.937,0,0,1-3.9,2.035,9.069,9.069,0,0,1-5.87-1.3c-6.313-3.676-10.144-9.286-12.214-16.177-.749-2.495-1.217-5.527-.187-7.988l.041-.095a7.681,7.681,0,0,0-.883,1.577c-1.031,2.462-.562,5.493.187,7.988Z" transform="translate(-54.135 -45.922)" fill="#dedfe0"/>
    <path id="Path_5551" data-name="Path 5551" d="M54.13,450.954c.4.311.807.615,1.243.922h0a6.635,6.635,0,0,0,2.2-1.532,3.3,3.3,0,0,0,.926-1.564h0a.042.042,0,0,1,0-.008l-.086.091a6.941,6.941,0,0,1-3.9,2.036Q54.326,450.932,54.13,450.954Z" transform="translate(-34.811 -422.475)" fill="#dedfe0"/>
  </g>
</svg>
