<svg xmlns="http://www.w3.org/2000/svg" xmlns:xlink="http://www.w3.org/1999/xlink" width="1920" height="187" viewBox="0 0 1920 187">
  <defs>
    <clipPath id="clip-path">
      <rect id="Rectangle_888" data-name="Rectangle 888" width="1920" height="187" transform="translate(0 1203)" fill="#fff" stroke="#707070" stroke-width="1"/>
    </clipPath>
  </defs>
  <g id="Blue_Swoosh" data-name="Blue Swoosh" transform="translate(1920 1390) rotate(180)" clip-path="url(#clip-path)">
    <path id="Path_5971" data-name="Path 5971" d="M-39.671,1425.908l21.354-221.934,207.438,81.648L760.493,1379.6l1159.342-28.717v38.088Z" fill="#fff"/>
    <g id="Group_2684" data-name="Group 2684" transform="translate(-0.5 -18.605)">
      <path id="Path_5972" data-name="Path 5972" d="M132.465-.686s9.436-5.885,7.568,0C121.279,58.393,3.12,430.9,13.943,956.655,27.471,1613.8,79,1918.815,79,1918.815H0s-48.105-482.455-38.23-962.159C-21.563,146.988,132.465-.686,132.465-.686Z" transform="translate(1.186 1371) rotate(-90)" fill="#dedfe0"/>
      <path id="Path_5973" data-name="Path 5973" d="M132.465-.686S2.089,380.806,13.943,956.655C27.471,1613.8,79,1918.815,79,1918.815H0s-48.105-482.455-38.23-962.159C-21.563,146.988,132.465-.686,132.465-.686Z" transform="translate(1.186 1362) rotate(-90)" fill="#174798"/>
      <path id="Path_5974" data-name="Path 5974" d="M1855.568,1487.955c-338.2,44.328-1261.879,130.211-1842.286-37.363,583.23,183.27,1384.217,93.816,1842.286,54.461C1854.347,1506.068,1855.568,1487.955,1855.568,1487.955Z" transform="translate(64.315 -192)" fill="#1795da"/>
    </g>
  </g>
</svg>
