<svg id="_021-power-plug-2" data-name="021-power-plug-2" xmlns="http://www.w3.org/2000/svg" width="33.46" height="51.914" viewBox="0 0 33.46 51.914">
  <g id="Group_740" data-name="Group 740" transform="translate(15.209 36.705)">
    <path id="Path_3688" data-name="Path 3688" d="M254.688,377.209A13.7,13.7,0,0,1,241,363.521a1.521,1.521,0,0,1,3.042,0,10.659,10.659,0,0,0,10.646,10.646,1.521,1.521,0,0,1,0,3.042Z" transform="translate(-241 -362)" fill="#6e6e6e"/>
  </g>
  <g id="Group_741" data-name="Group 741" transform="translate(6.084)">
    <path id="Path_3689" data-name="Path 3689" d="M152.521,12.37A1.521,1.521,0,0,1,151,10.849V1.521a1.521,1.521,0,1,1,3.042,0v9.328A1.521,1.521,0,0,1,152.521,12.37Z" transform="translate(-151)" fill="#d2dce7"/>
  </g>
  <g id="Group_742" data-name="Group 742" transform="translate(24.335)">
    <path id="Path_3690" data-name="Path 3690" d="M332.521,12.37A1.521,1.521,0,0,1,331,10.849V1.521a1.521,1.521,0,0,1,3.042,0v9.328A1.521,1.521,0,0,1,332.521,12.37Z" transform="translate(-331)" fill="#a1aebc"/>
  </g>
  <g id="Group_743" data-name="Group 743" transform="translate(0 9.328)">
    <path id="Path_3691" data-name="Path 3691" d="M122.94,92H92.521A1.521,1.521,0,0,0,91,93.521V99.6a1.521,1.521,0,0,0,1.521,1.521h1.521v7.6a13.688,13.688,0,0,0,27.377,0v-7.6h1.521A1.521,1.521,0,0,0,124.46,99.6V93.521A1.521,1.521,0,0,0,122.94,92Z" transform="translate(-91 -92)" fill="#fed843"/>
  </g>
  <path id="Path_3692" data-name="Path 3692" d="M272.73,93.521V99.6a1.522,1.522,0,0,1-1.521,1.521h-1.521v7.6A13.7,13.7,0,0,1,256,122.419V92h15.209A1.522,1.522,0,0,1,272.73,93.521Z" transform="translate(-239.27 -82.672)" fill="#ffb64c"/>
  <g id="Group_744" data-name="Group 744" transform="translate(12.168 18.433)">
    <path id="Path_3693" data-name="Path 3693" d="M219.684,190.5l-3.042,3.042a1.451,1.451,0,0,1-1.076.461,1.537,1.537,0,0,1-1.076-2.613l1.076-1.075.475-.475-.475-.237-3.722-1.861a1.523,1.523,0,0,1-.4-2.437l3.042-3.042a1.457,1.457,0,0,1,1.076-.465,1.539,1.539,0,0,1,1.076,2.617l-1.076,1.075-.475.475.475.237,3.722,1.861A1.523,1.523,0,0,1,219.684,190.5Z" transform="translate(-211.004 -181.797)" fill="#6e6e6e"/>
  </g>
  <g id="Group_745" data-name="Group 745" transform="translate(16.73 18.434)">
    <path id="Path_3694" data-name="Path 3694" d="M257.076,184.417,256,185.492V181.8A1.539,1.539,0,0,1,257.076,184.417Z" transform="translate(-256 -181.8)" fill="#444"/>
    <path id="Path_3695" data-name="Path 3695" d="M260.118,229.527l-3.042,3.042a1.451,1.451,0,0,1-1.076.461v-3.688l.475-.475-.475-.237v-3.4l3.722,1.861A1.523,1.523,0,0,1,260.118,229.527Z" transform="translate(-256 -220.826)" fill="#444"/>
  </g>
</svg>
