<svg id="_014-fire" data-name="014-fire" xmlns="http://www.w3.org/2000/svg" width="41.89" height="51.374" viewBox="0 0 41.89 51.374">
  <path id="Path_3096" data-name="Path 3096" d="M47.959,25.055a21.055,21.055,0,0,0,6.284,5.506S51.162,4.522,71.236,0c-5.143,18.876,6.542,24.2,10.8,14.227,7.113,9.5,1.712,17.783,1.712,17.783,2.917.42,5.367-2.766,5.367-2.766.022.393.034.788.034,1.186a20.945,20.945,0,1,1-41.192-5.375Z" transform="translate(-47.262 0)" fill="#ff6536"/>
  <path id="Path_3097" data-name="Path 3097" d="M276.911,29.244s-2.45,3.187-5.367,2.766c0,0,5.4-8.286-1.712-17.783C265.572,24.2,253.887,18.876,259.03,0A22.518,22.518,0,0,0,256,.9V51.374a20.945,20.945,0,0,0,20.945-20.945C276.945,30.031,276.933,29.636,276.911,29.244Z" transform="translate(-235.055 0)" fill="#ff421d"/>
  <path id="Path_3098" data-name="Path 3098" d="M164.456,288.872a9.186,9.186,0,1,0,15.32-6.837c-3.551,4.825-8.612-2.494-4.668-7.839C175.108,274.2,164.456,275.531,164.456,288.872Z" transform="translate(-152.697 -246.683)" fill="#fbbf00"/>
  <path id="Path_3099" data-name="Path 3099" d="M265.186,288.872a9.162,9.162,0,0,0-3.051-6.837c-3.551,4.825-8.612-2.494-4.668-7.839a9.244,9.244,0,0,0-1.466.353v23.509A9.186,9.186,0,0,0,265.186,288.872Z" transform="translate(-235.055 -246.683)" fill="#ffa900"/>
</svg>
