<svg id="_003-leaf-1" data-name="003-leaf-1" xmlns="http://www.w3.org/2000/svg" width="41.432" height="41.431" viewBox="0 0 41.432 41.431">
  <path id="Path_3433" data-name="Path 3433" d="M86.178,35.772a16.172,16.172,0,0,1-11.472-4.744h0a16.24,16.24,0,0,1,0-22.944C83.63-.841,103.567,0,104.407.041a1.352,1.352,0,0,1,1.286,1.286c.04.844.882,20.776-8.043,29.7A16.174,16.174,0,0,1,86.178,35.772Z" transform="translate(-64.3 -0.003)" fill="#88cc2a"/>
  <g id="Group_672" data-name="Group 672" transform="translate(10.407 0.432)">
    <path id="Path_3434" data-name="Path 3434" d="M140.074,40.68a16.174,16.174,0,0,0,11.473-4.744c8.925-8.925,8.083-28.856,8.043-29.7a1.348,1.348,0,0,0-.394-.892L128.6,35.936A16.172,16.172,0,0,0,140.074,40.68Z" transform="translate(-128.602 -5.343)" fill="#7fb335"/>
    <path id="Path_3435" data-name="Path 3435" d="M278.646,95.411a1.352,1.352,0,0,1-1.352-1.352V84.5a1.352,1.352,0,1,1,2.7,0v9.56A1.352,1.352,0,0,1,278.646,95.411Z" transform="translate(-265.262 -76.851)" fill="#7fb335"/>
  </g>
  <path id="Path_3436" data-name="Path 3436" d="M288.206,203.994h-9.56a1.352,1.352,0,1,1,0-2.7h9.56a1.352,1.352,0,1,1,0,2.7Z" transform="translate(-254.855 -185.001)" fill="#73a62a"/>
  <path id="Path_3437" data-name="Path 3437" d="M172.32,201.737a1.352,1.352,0,0,1-1.352-1.352v-9.56a1.352,1.352,0,1,1,2.7,0v9.56A1.352,1.352,0,0,1,172.32,201.737Z" transform="translate(-157.133 -174.141)" fill="#7fb335"/>
  <path id="Path_3438" data-name="Path 3438" d="M181.88,310.32h-9.56a1.352,1.352,0,1,1,0-2.7h9.56a1.352,1.352,0,0,1,0,2.7Z" transform="translate(-157.133 -282.723)" fill="#73a62a"/>
  <path id="Path_3439" data-name="Path 3439" d="M1.352,128.713A1.352,1.352,0,0,1,.4,126.405L31.44,95.363a1.352,1.352,0,0,1,1.912,1.912L2.308,128.317A1.347,1.347,0,0,1,1.352,128.713Z" transform="translate(-0.001 -87.282)" fill="#7fb335"/>
  <path id="Path_3440" data-name="Path 3440" d="M5.85,133.21a1.347,1.347,0,0,0,.956-.4l31.043-31.043a1.352,1.352,0,0,0,0-1.912h0L4.894,132.814A1.348,1.348,0,0,0,5.85,133.21Z" transform="translate(-4.498 -91.778)" fill="#73a62a"/>
</svg>
