<svg id="_031-fan-7" data-name="031-fan-7" xmlns="http://www.w3.org/2000/svg" width="50.407" height="47.45" viewBox="0 0 50.407 47.45">
  <path id="Path_3169" data-name="Path 3169" d="M122.509,247.794a14.595,14.595,0,0,1-13.213-20.78l2.673,1.254a11.532,11.532,0,0,0-1.1,4.937,11.649,11.649,0,0,0,11.636,11.636Z" transform="translate(-97.299 -206.151)" fill="#c5c9f7"/>
  <path id="Path_3170" data-name="Path 3170" d="M321.846,217.164l-1.6-2.48a11.639,11.639,0,0,0,2.673-17.182l2.277-1.879a14.592,14.592,0,0,1-3.347,21.541Z" transform="translate(-288.726 -177.85)" fill="#a7aff2"/>
  <path id="Path_3171" data-name="Path 3171" d="M147.8,148.523l-2.2-1.967a14.609,14.609,0,0,1,10.881-4.871,14.455,14.455,0,0,1,6.326,1.439l-1.281,2.66a11.528,11.528,0,0,0-5.044-1.147A11.654,11.654,0,0,0,147.8,148.523Z" transform="translate(-131.265 -129.22)" fill="#c5c9f7"/>
  <path id="Path_3172" data-name="Path 3172" d="M61.058,97.893l-2.819-.877a20.567,20.567,0,0,1,7.274-10.278,20.423,20.423,0,0,1,19.958-2.526l-1.123,2.73a17.462,17.462,0,0,0-23.29,10.951Z" transform="translate(-52.507 -76.026)" fill="#c5c9f7"/>
  <path id="Path_3173" data-name="Path 3173" d="M75.106,330.979a20.5,20.5,0,0,1-4.174.429h0A20.4,20.4,0,0,1,50.709,313.7l2.927-.386a17.48,17.48,0,0,0,17.292,15.141h0a17.544,17.544,0,0,0,3.571-.367Z" transform="translate(-45.719 -283.959)" fill="#c5c9f7"/>
  <path id="Path_3174" data-name="Path 3174" d="M366.172,166.2l-1.8-2.337a17.444,17.444,0,0,0,.915-26.874l1.958-2.21a20.417,20.417,0,0,1,6.873,15.268,20.186,20.186,0,0,1-2.16,9.145A20.583,20.583,0,0,1,366.172,166.2Z" transform="translate(-328.509 -122.996)" fill="#a7aff2"/>
  <path id="Path_3175" data-name="Path 3175" d="M187.1,228.372a7.542,7.542,0,1,1,7.542-7.542A7.55,7.55,0,0,1,187.1,228.372Zm0-12.131a4.59,4.59,0,1,0,4.589,4.589A4.595,4.595,0,0,0,187.1,216.24Z" transform="translate(-161.887 -193.776)"/>
  <path id="Path_3176" data-name="Path 3176" d="M259.77,463.435l.6,2.89a20.5,20.5,0,0,1-4.174.429V463.8A17.546,17.546,0,0,0,259.77,463.435Z" transform="translate(-230.985 -419.305)" fill="#a7aff2"/>
  <g id="Group_644" data-name="Group 644">
    <path id="Path_3177" data-name="Path 3177" d="M174.443,19.732l-5.113,17.837-1.419-.406H160.94l-1.419.406-5.112-17.837.547-.607a12.705,12.705,0,0,1,9.469-4.1h0a12.705,12.705,0,0,1,9.469,4.1Z" transform="translate(-139.213 -15.025)" fill="#ffaa20"/>
    <path id="Path_3178" data-name="Path 3178" d="M294.645,278.745a13.057,13.057,0,0,1-1.777,6.525,12.7,12.7,0,0,1-8.29,6.144l-.8.169L270.9,278.226l1.063-1.025,3.491-6.035.359-1.432,18,4.506.252.778A12.065,12.065,0,0,1,294.645,278.745Z" transform="translate(-244.239 -244.668)" fill="#ffaa20"/>
    <path id="Path_3179" data-name="Path 3179" d="M19.213,270.988l-.355-1.433L.848,274.013l-.254.777a12.989,12.989,0,0,0,9.441,16.42l.8.171L23.748,278.06l-1.06-1.028Z" transform="translate(0 -244.506)" fill="#ffaa20"/>
  </g>
  <path id="Path_3180" data-name="Path 3180" d="M259.684,37.162H256.2V15.025a12.705,12.705,0,0,1,9.469,4.1l.547.607L261.1,37.569Z" transform="translate(-230.985 -15.025)" fill="#ff8900"/>
  <path id="Path_3181" data-name="Path 3181" d="M294.645,278.745a13.057,13.057,0,0,1-1.777,6.525,12.7,12.7,0,0,1-8.29,6.144l-.8.169L270.9,278.226l1.063-1.025,3.491-6.035.359-1.432,18,4.506.252.778A12.065,12.065,0,0,1,294.645,278.745Z" transform="translate(-244.239 -244.668)" fill="#ff8900"/>
  <path id="Path_3182" data-name="Path 3182" d="M194.643,220.827a7.551,7.551,0,0,1-7.542,7.541h0a7.542,7.542,0,0,1,0-15.084h0A7.551,7.551,0,0,1,194.643,220.827Z" transform="translate(-161.888 -193.773)" fill="#97a1f0"/>
  <path id="Path_3183" data-name="Path 3183" d="M263.741,220.827a7.551,7.551,0,0,1-7.542,7.541V213.285A7.551,7.551,0,0,1,263.741,220.827Z" transform="translate(-230.985 -193.773)" fill="#7985eb"/>
</svg>
