<svg id="professions-and-jobs" xmlns="http://www.w3.org/2000/svg" width="38.139" height="45.412" viewBox="0 0 38.139 45.412">
  <g id="Group_1353" data-name="Group 1353" transform="translate(0 26.608)">
    <path id="Path_5912" data-name="Path 5912" d="M70.269,300.087,67.608,300H52.53l-2.661.087A10.215,10.215,0,0,0,41,310.2v7.273a1.33,1.33,0,0,0,1.33,1.33h4.878l12.861-1.774L72.93,318.8h4.878a1.33,1.33,0,0,0,1.33-1.33V310.2A10.215,10.215,0,0,0,70.269,300.087Z" transform="translate(-41 -300)" fill="#ffeb78"/>
    <g id="Group_1352" data-name="Group 1352" transform="translate(19.069)">
      <path id="Path_5913" data-name="Path 5913" d="M275.069,317.473V310.2a10.215,10.215,0,0,0-8.87-10.113L263.539,300H256v17.029l12.861,1.774h4.878A1.33,1.33,0,0,0,275.069,317.473Z" transform="translate(-256 -300)" fill="#ffb454"/>
    </g>
    <path id="Path_5914" data-name="Path 5914" d="M342.33,312.417a1.33,1.33,0,0,0,1.33-1.33v-11a10.254,10.254,0,0,0-1.33-.087H341v11.087A1.33,1.33,0,0,0,342.33,312.417Z" transform="translate(-314.392 -300)" fill="#4166be"/>
    <path id="Path_5915" data-name="Path 5915" d="M142.33,312.417a1.33,1.33,0,0,0,1.33-1.33V300h-1.33a10.253,10.253,0,0,0-1.33.087v11A1.33,1.33,0,0,0,142.33,312.417Z" transform="translate(-132.131 -300)" fill="#678cc8"/>
  </g>
  <path id="Path_5916" data-name="Path 5916" d="M203.5,249.957v6.878a4.656,4.656,0,0,0,9.313,0v-6.878Z" transform="translate(-189.087 -227.787)" fill="#faa68f"/>
  <path id="Path_5917" data-name="Path 5917" d="M256,261.491a4.656,4.656,0,0,0,4.656-4.656v-6.878H256Z" transform="translate(-236.931 -227.787)" fill="#e09380"/>
  <path id="Path_5918" data-name="Path 5918" d="M136.722,419.047H111v-5.056A3.991,3.991,0,0,1,114.991,410H132.73a3.991,3.991,0,0,1,3.991,3.991Z" transform="translate(-104.791 -373.635)" fill="#4166be"/>
  <g id="Group_1354" data-name="Group 1354" transform="translate(19.069 36.365)">
    <path id="Path_5919" data-name="Path 5919" d="M264.87,410H256v9.047h12.861v-5.056A3.991,3.991,0,0,0,264.87,410Z" transform="translate(-256 -410)" fill="#234a78"/>
  </g>
  <g id="Group_1355" data-name="Group 1355" transform="translate(5.322 9.313)">
    <path id="Path_5920" data-name="Path 5920" d="M108.1,105h-3.77a3.326,3.326,0,1,0,0,6.652h3.77Z" transform="translate(-101 -105)" fill="#faa68f"/>
    <path id="Path_5921" data-name="Path 5921" d="M334.77,105H331v6.652h3.77a3.326,3.326,0,1,0,0-6.652Z" transform="translate(-310.6 -105)" fill="#e09380"/>
  </g>
  <path id="Path_5922" data-name="Path 5922" d="M160.313,107.916A9.324,9.324,0,0,1,151,98.6V91.33A1.33,1.33,0,0,1,152.33,90H168.3a1.33,1.33,0,0,1,1.33,1.33V98.6A9.324,9.324,0,0,1,160.313,107.916Z" transform="translate(-141.244 -82.017)" fill="#ffbeaa"/>
  <path id="Path_5923" data-name="Path 5923" d="M263.983,90H256v17.916a9.324,9.324,0,0,0,9.313-9.313V91.33A1.33,1.33,0,0,0,263.983,90Z" transform="translate(-236.931 -82.017)" fill="#faa68f"/>
  <path id="Path_5924" data-name="Path 5924" d="M151.23,92.069l1.028,1.542a9.73,9.73,0,0,0,7.826,4.37,9.6,9.6,0,0,0,8.237-4.28l1.088-1.632A1.331,1.331,0,0,0,168.3,90H152.337a1.331,1.331,0,0,0-1.108,2.068Z" transform="translate(-141.25 -82.018)" fill="#ff6378"/>
  <path id="Path_5925" data-name="Path 5925" d="M263.982,90H256v7.982a9.6,9.6,0,0,0,8-4.281l1.088-1.632A1.331,1.331,0,0,0,263.982,90Z" transform="translate(-236.931 -82.017)" fill="#e20059"/>
  <path id="Path_5926" data-name="Path 5926" d="M162.974,0h-5.322A6.66,6.66,0,0,0,151,6.652V9.313h18.626V6.652A6.66,6.66,0,0,0,162.974,0Z" transform="translate(-141.244)" fill="#e20059"/>
  <path id="Path_5927" data-name="Path 5927" d="M265.313,9.313V6.652A6.66,6.66,0,0,0,258.661,0H256V9.313Z" transform="translate(-236.931)" fill="#c30047"/>
</svg>
