<svg id="_012-heater-1" data-name="012-heater-1" xmlns="http://www.w3.org/2000/svg" width="34.41" height="47.519" viewBox="0 0 34.41 47.519">
  <g id="Group_906" data-name="Group 906" transform="translate(2.458 42.603)">
    <path id="Path_4502" data-name="Path 4502" d="M97.1,459.034h3.277v4.1a.819.819,0,0,1-.819.819H97.921a.819.819,0,0,1-.819-.819v-4.1Z" transform="translate(-97.102 -459.034)" fill="#7f8c8d"/>
    <path id="Path_4503" data-name="Path 4503" d="M379.585,459.034h3.277v4.1a.819.819,0,0,1-.819.819H380.4a.819.819,0,0,1-.819-.819v-4.1Z" transform="translate(-353.368 -459.034)" fill="#7f8c8d"/>
  </g>
  <path id="Path_4504" data-name="Path 4504" d="M72.26,0h31.133a1.639,1.639,0,0,1,1.639,1.639V42.6a1.639,1.639,0,0,1-1.639,1.639H72.26A1.639,1.639,0,0,1,70.621,42.6V1.639A1.639,1.639,0,0,1,72.26,0Z" transform="translate(-70.621 0)" fill="#a5a5a4"/>
  <g id="Group_907" data-name="Group 907">
    <path id="Path_4505" data-name="Path 4505" d="M105.031,1.639v25.4H70.621V1.639A1.643,1.643,0,0,1,72.26,0h31.133A1.643,1.643,0,0,1,105.031,1.639Z" transform="translate(-70.621)" fill="#d1d4d1"/>
    <path id="Path_4506" data-name="Path 4506" d="M114.759,356.565l1.449-10.867a1.639,1.639,0,0,1,1.624-1.422H137.9a1.639,1.639,0,0,1,1.624,1.422l1.449,10.867" transform="translate(-110.663 -312.324)" fill="#d1d4d1"/>
  </g>
  <circle id="Ellipse_133" data-name="Ellipse 133" cx="2.458" cy="2.458" r="2.458" transform="translate(9.012 36.049)" fill="#95a5a5"/>
  <path id="Path_4507" data-name="Path 4507" d="M186.2,374.035a.819.819,0,0,1-.819-.819v-1.639a.819.819,0,0,1,1.639,0v1.639A.819.819,0,0,1,186.2,374.035Z" transform="translate(-174.728 -336.348)" fill="#7f8c8d"/>
  <circle id="Ellipse_134" data-name="Ellipse 134" cx="2.458" cy="2.458" r="2.458" transform="translate(20.482 36.049)" fill="#95a5a5"/>
  <path id="Path_4508" data-name="Path 4508" d="M309.784,374.035a.819.819,0,0,1-.819-.819v-1.639a.819.819,0,1,1,1.639,0v1.639A.819.819,0,0,1,309.784,374.035Z" transform="translate(-286.844 -336.348)" fill="#7f8c8d"/>
  <path id="Path_4509" data-name="Path 4509" d="M199.914,61.793s-5.735,7.186-5.735,10.266a5.747,5.747,0,1,0,11.47,0C205.649,68.979,199.914,61.793,199.914,61.793Z" transform="translate(-182.709 -56.058)" fill="#f29c1f"/>
  <path id="Path_4510" data-name="Path 4510" d="M231.975,158.262c-1.355,0-2.457-1.387-2.457-3.093a18.794,18.794,0,0,1,2.456-5.1,18.626,18.626,0,0,1,2.46,5.144C234.432,156.874,233.33,158.262,231.975,158.262Z" transform="translate(-214.771 -136.141)" fill="#f0c419"/>
</svg>
